<svg width="20" height="20" viewBox="0 0 20 20" fill="none" xmlns="http://www.w3.org/2000/svg">
<path d="M5.87854 2.28297L6.22654 3.35397C6.33447 3.67973 6.5171 3.97572 6.75984 4.21829C7.00259 4.46086 7.29871 4.64328 7.62454 4.75097L8.69654 5.09897L8.71854 5.10497C8.80115 5.13405 8.87269 5.18805 8.9233 5.25952C8.97391 5.33099 9.00109 5.4164 9.00109 5.50397C9.00109 5.59154 8.97391 5.67696 8.9233 5.74843C8.87269 5.81989 8.80115 5.87389 8.71854 5.90297L7.64654 6.25097C7.32052 6.35853 7.0242 6.54089 6.78128 6.78347C6.53835 7.02604 6.35557 7.32211 6.24754 7.64797L5.90054 8.71797C5.87147 8.80058 5.81747 8.87212 5.746 8.92273C5.67453 8.97334 5.58912 9.00052 5.50154 9.00052C5.41397 9.00052 5.32856 8.97334 5.25709 8.92273C5.18562 8.87212 5.13162 8.80058 5.10254 8.71797L4.75454 7.64797C4.64732 7.321 4.4649 7.02373 4.22192 6.78007C3.97895 6.5364 3.68221 6.35313 3.35554 6.24497L2.28254 5.89697C2.19994 5.86789 2.1284 5.81389 2.07779 5.74243C2.02718 5.67096 2 5.58554 2 5.49797C2 5.4104 2.02718 5.32499 2.07779 5.25352C2.1284 5.18205 2.19994 5.12805 2.28254 5.09897L3.35454 4.75097C3.67649 4.64051 3.96842 4.45684 4.20736 4.21443C4.4463 3.97203 4.62573 3.67748 4.73154 3.35397L5.08054 2.28397C5.10941 2.20102 5.16338 2.12911 5.23497 2.07823C5.30656 2.02734 5.39221 2 5.48004 2C5.56787 2 5.65353 2.02734 5.72512 2.07823C5.7967 2.12911 5.85068 2.20102 5.87954 2.28397M10.7845 10.215L10.0185 9.96697C9.78611 9.88926 9.57494 9.75855 9.40173 9.58517C9.22852 9.41178 9.09802 9.20048 9.02054 8.96797L8.77054 8.20397C8.74984 8.1449 8.71129 8.09373 8.66024 8.05752C8.60918 8.02132 8.54814 8.00187 8.48554 8.00187C8.42295 8.00187 8.36191 8.02132 8.31085 8.05752C8.25979 8.09373 8.22125 8.1449 8.20054 8.20397L7.95254 8.96797C7.87648 9.19899 7.74811 9.40933 7.57744 9.58261C7.40676 9.75589 7.19839 9.88743 6.96854 9.96697L6.20354 10.215C6.14448 10.2357 6.0933 10.2742 6.05709 10.3253C6.02089 10.3763 6.00144 10.4374 6.00144 10.5C6.00144 10.5626 6.02089 10.6236 6.05709 10.6747C6.0933 10.7257 6.14448 10.7643 6.20354 10.785L6.96854 11.034C7.20167 11.1117 7.41345 11.2428 7.58704 11.4167C7.76064 11.5907 7.89127 11.8027 7.96854 12.036L8.21654 12.8C8.23725 12.859 8.27579 12.9102 8.32685 12.9464C8.37791 12.9826 8.43895 13.0021 8.50154 13.0021C8.56414 13.0021 8.62518 12.9826 8.67624 12.9464C8.72729 12.9102 8.76584 12.859 8.78654 12.8L9.03554 12.036C9.11312 11.8034 9.24377 11.592 9.41716 11.4186C9.59056 11.2452 9.80193 11.1145 10.0345 11.037L10.7995 10.789C10.8586 10.7683 10.9098 10.7297 10.946 10.6787C10.9822 10.6276 11.0016 10.5666 11.0016 10.504C11.0016 10.4414 10.9822 10.3803 10.946 10.3293C10.9098 10.2782 10.8586 10.2397 10.7995 10.219L10.7845 10.215ZM7.27654 13.151C7.30321 13.2176 7.33388 13.281 7.36854 13.341L7.04554 13.664C6.9747 13.7351 6.92131 13.8217 6.88954 13.917L6.29054 15.711L8.08454 15.113C8.17979 15.0812 8.26639 15.0278 8.33754 14.957L14.6315 8.66297L14.6615 8.63297L15.7325 7.56297C15.9041 7.39151 16.0006 7.1589 16.0007 6.91633C16.0008 6.67375 15.9045 6.44107 15.733 6.26947C15.5616 6.09788 15.329 6.00142 15.0864 6.00133C14.8438 6.00124 14.6111 6.09751 14.4395 6.26897L11.3225 9.38597C11.2479 9.34509 11.17 9.31064 11.0895 9.28297L10.3295 9.03297L10.2805 9.01397L13.7335 5.56097C14.0926 5.202 14.5796 5.00039 15.0874 5.00048C15.5952 5.00057 16.0821 5.20237 16.441 5.56147C16.8 5.92058 17.0016 6.40757 17.0015 6.91533C17.0014 7.42308 16.7996 7.91 16.4405 8.26897L15.7075 9.00097L15.9705 9.26397C16.2985 9.59213 16.4827 10.0371 16.4827 10.501C16.4827 10.9649 16.2985 11.4098 15.9705 11.738L14.8545 12.855C14.8081 12.9014 14.7529 12.9382 14.6922 12.9633C14.6315 12.9884 14.5664 13.0013 14.5007 13.0013C14.435 13.0012 14.3699 12.9882 14.3093 12.963C14.2486 12.9378 14.1935 12.901 14.147 12.8545C14.1006 12.808 14.0638 12.7528 14.0387 12.6921C14.0136 12.6314 14.0007 12.5663 14.0008 12.5006C14.0008 12.4349 14.0138 12.3699 14.039 12.3092C14.0642 12.2485 14.1011 12.1934 14.1475 12.147L15.2635 11.031C15.404 10.8903 15.4829 10.6997 15.4829 10.501C15.4829 10.3022 15.404 10.1116 15.2635 9.97097L15.0005 9.70797L9.04554 15.663C8.86463 15.8438 8.64416 15.98 8.40154 16.061L5.65854 16.975C5.57053 17.0042 5.47612 17.0083 5.38589 16.9869C5.29565 16.9656 5.21313 16.9195 5.14756 16.854C5.08199 16.7884 5.03594 16.7059 5.01457 16.6156C4.9932 16.5254 4.99735 16.431 5.02654 16.343L5.94054 13.6C6.02054 13.357 6.15754 13.137 6.33854 12.956L6.99554 12.299L7.01554 12.349L7.27654 13.151Z" fill="currentColor"/>
</svg>
